# xmcd
#
# Track frame offsets:
#	150
#	18912
#	35613
#	49472
#	69264
#	85237
#	105042
#	118896
#	140787
#	158836
#	183784
#
# Disc length: 2719 seconds
#
# Revision: 3
# Processed by: cddbd v1.5.2PL0 Copyright (c) Steve Scherf et al.
# Submitted via: EasyCDDAExtractor 15.3.0.1
#
DISCID=8c0a9d0b
DTITLE=Alvaro Torres - Interpreta A Juan Gabriel En Bolero
DYEAR=2005
DGENRE=Latin
TTITLE0=Querida
TTITLE1=Ya Lo Se Que Tu Te Vas
TTITLE2=No Me Vuelvo A Enamorar (Duo Con Jose Feliciano)
TTITLE3=Inocente Pobre Amigo
TTITLE4=Solo Se Que Fue En Marzo
TTITLE5=He Venido A Pedirte Perdon (Duo Con Monchy Y Alexandra) (Version Bacha
TTITLE5=ta)
TTITLE6=Se Me Olvido Otra Vez
TTITLE7=Amor Eterno
TTITLE8=Costumbres
TTITLE9=Hasta Que Te Conoci
TTITLE10=He Venido A Pedirte Perdon (Version Bolero)
EXTD=
EXTT0=
EXTT1=
EXTT2=
EXTT3=
EXTT4=
EXTT5=
EXTT6=
EXTT7=
EXTT8=
EXTT9=
EXTT10=
PLAYORDER=
